<?xml version="1.0" encoding="UTF-8"?>
<svg id="Layer_2" data-name="Layer 2" xmlns="http://www.w3.org/2000/svg" viewBox="0 0 275.54 318.84">
  <defs>
    <style>
      .cls-1 {
        fill: #84b58d;
      }

      .cls-2 {
        fill: #fff;
      }

      .cls-3 {
        fill: #003a22;
      }
    </style>
  </defs>
  <g id="Layer_1-2" data-name="Layer 1">
    <g>
      <polygon class="cls-2" points="39.36 271.6 39.36 59.04 137.77 0 137.77 47.24 78.73 82.66 78.73 129.9 137.77 94.47 137.77 141.71 78.73 177.13 78.73 247.99 39.36 271.6"/>
      <g>
        <polygon class="cls-1" points="39.36 224.37 39.36 199.19 39.36 106.28 40.52 105.59 39.36 105.59 39.36 59.04 0 82.66 0 247.99 39.36 271.6 39.36 224.37"/>
        <polygon class="cls-1" points="216.5 47.24 216.5 94.47 236.18 106.28 236.18 224.37 157.45 271.6 157.45 318.84 275.54 247.99 275.54 82.66 216.5 47.24"/>
      </g>
      <polygon class="cls-3" points="196.81 35.43 137.77 0 137.77 47.24 78.73 82.66 78.73 129.9 118.8 106.28 137.77 94.47 137.77 141.71 78.73 177.13 78.73 247.99 39.36 271.6 98.41 307.03 137.77 283.41 138.34 212.32 196.81 177.14 196.81 129.9 157.45 106.28 196.81 82.66 196.81 35.43"/>
    </g>
  </g>
</svg>